<svg id="icons" xmlns="http://www.w3.org/2000/svg" viewBox="0 0 64 64"><title>giftbox</title><g id="giftbox"><polyline points="40 34 40 32 40 22 37.33 22 32 22 31 22 26.67 22 24 22 24 32 24 34" fill="#fb79c6"/><polyline points="24 34 24 60 26 60 38 60 40 60 40 34" fill="#e54b89"/><path d="M60,24v8a2,2,0,0,1-2,2H40V22H58A2,2,0,0,1,60,24Z" fill="#ffe5f9"/><path d="M55,34V58.21A1.83,1.83,0,0,1,53.16,60H40V34Z" fill="#ffdc96"/><path d="M41,4a9,9,0,0,1,0,18H32V21h5a5,5,0,1,0-5-5V13A9,9,0,0,1,41,4Z" fill="#fff"/><path d="M32,21v1H23a9,9,0,1,1,9-9v3a5,5,0,1,0-5,5Z" fill="#fff"/><path d="M24,34V60H10.84A1.83,1.83,0,0,1,9,58.21V34Z" fill="#ffdc96"/><path d="M24,22V34H6a2,2,0,0,1-2-2V24a2,2,0,0,1,2-2H24Z" fill="#ffe5f9"/><path d="M24,60H10.84A1.83,1.83,0,0,1,9,58.21V34" fill="none" stroke="#80257b" stroke-miterlimit="10" stroke-width="4"/><path d="M55,34V58.21A1.83,1.83,0,0,1,53.16,60H40" fill="none" stroke="#80257b" stroke-miterlimit="10" stroke-width="4"/><path d="M24,34H6a2,2,0,0,1-2-2V24a2,2,0,0,1,2-2H24" fill="none" stroke="#80257b" stroke-linecap="round" stroke-linejoin="round" stroke-width="4"/><path d="M40,22H58a2,2,0,0,1,2,2v8a2,2,0,0,1-2,2H40" fill="none" stroke="#80257b" stroke-linecap="round" stroke-linejoin="round" stroke-width="4"/><polyline points="26.67 22 31 22 32 22 37.33 22" fill="none" stroke="#80257b" stroke-linecap="round" stroke-linejoin="round" stroke-width="4"/><polyline points="37.33 22 40 22 40 34 40 60 38 60 26 60 24 60 24 34 24 22 26.67 22" fill="none" stroke="#80257b" stroke-miterlimit="10" stroke-width="4"/><path d="M32,13a9,9,0,1,1,9,9" fill="none" stroke="#80257b" stroke-miterlimit="10" stroke-width="4"/><path d="M32,13a9,9,0,1,0-9,9" fill="none" stroke="#80257b" stroke-miterlimit="10" stroke-width="4"/><polyline points="32 12.47 32 13 32 22 40 14" fill="none" stroke="#80257b" stroke-linecap="round" stroke-linejoin="round" stroke-width="4"/><line x1="24" y1="14" x2="32" y2="22" fill="none" stroke="#80257b" stroke-linecap="round" stroke-linejoin="round" stroke-width="4"/></g></svg>