<svg id="icons" xmlns="http://www.w3.org/2000/svg" viewBox="0 0 64 64"><title>folded-love-heart-card</title><g id="folded-love-heart-card"><g id="_Group_" data-name="&lt;Group&gt;"><polygon points="54.97 13 55 60 9 60 9 13 9.03 13 39.32 13 40 13 54.97 13" fill="#ffe5f9"/><polygon points="50.99 4 50.99 13 39.32 13 9.03 13 9 13 50.99 4" fill="#e54b89"/><polyline points="9 13 9 60 55 60 55 13 50 13" fill="none" stroke="#80257b" stroke-linecap="round" stroke-linejoin="round" stroke-width="4"/><polygon points="51 13 51 4 9 12 9 13 51 13" fill="none" stroke="#80257b" stroke-linecap="round" stroke-linejoin="round" stroke-width="4"/></g><path d="M41.37,38.36,32,48l-9.37-9.64-2.7-2.77a6.93,6.93,0,0,1,0-9.6,6.47,6.47,0,0,1,9.34,0L32,29l2.73-3a6.47,6.47,0,0,1,9.34,0,6.93,6.93,0,0,1,0,9.6Z" fill="#fb79c6"/><path d="M41.37,38.36,32,48l-9.37-9.64-2.7-2.77a6.93,6.93,0,0,1,0-9.6,6.47,6.47,0,0,1,9.34,0L32,29l2.73-3a6.47,6.47,0,0,1,9.34,0,6.93,6.93,0,0,1,0,9.6Z" fill="none" stroke="#80257b" stroke-linecap="round" stroke-linejoin="round" stroke-width="4"/></g></svg>